<?xml version="1.0" standalone="no"?>
<!DOCTYPE svg PUBLIC "-//W3C//DTD SVG 20010904//EN"
 "http://www.w3.org/TR/2001/REC-SVG-20010904/DTD/svg10.dtd">
<svg version="1.0" xmlns="http://www.w3.org/2000/svg"
 width="300.000000pt" height="300.000000pt" viewBox="0 0 300.000000 300.000000"
 preserveAspectRatio="xMidYMid meet">
<metadata>
Created by potrace 1.10, written by Peter Selinger 2001-2011
</metadata>
<g transform="translate(0.000000,300.000000) scale(0.050000,-0.050000)"
fill="#EDAAA6" stroke="none">
<path d="M2603 5039 c-1142 -110 -2066 -603 -2441 -1301 -257 -479 -199 -1181
138 -1677 1003 -1478 4406 -1485 5394 -11 339 506 403 1180 158 1667 -441 875
-1869 1456 -3249 1322z m1037 -151 c522 -76 1037 -257 1405 -492 165 -105 164
-103 10 -154 -450 -150 -863 -134 -1278 48 -491 216 -996 197 -1312 -50 -24
-20 -94 -42 -155 -49 -61 -8 -171 -31 -245 -52 -248 -71 -488 -40 -1035 136
l-180 57 90 58 c693 440 1757 637 2700 498z m-80 -643 c94 -33 224 -84 290
-112 379 -159 931 -145 1336 35 l106 46 72 -57 c206 -165 496 -637 496 -806 0
-13 -88 -44 -195 -70 -256 -61 -640 -184 -874 -279 l-187 -77 -177 154 c-1228
1071 -1269 1087 -1777 700 -264 -201 -380 -237 -542 -169 l-71 29 40 56 c388
540 943 746 1483 550z m-2070 -224 c230 -51 404 -51 580 -1 210 60 211 54 24
-137 -215 -220 -223 -277 -49 -366 200 -101 360 -64 655 153 470 346 429 360
1435 -498 516 -439 567 -520 392 -614 -118 -63 -165 -41 -435 198 -139 123
-261 224 -271 224 -66 0 -19 -71 187 -279 250 -253 268 -290 192 -387 -113
-143 -226 -114 -464 119 -161 157 -213 187 -230 135 -4 -11 70 -105 164 -209
184 -204 194 -229 123 -296 -106 -100 -171 -84 -352 85 -253 237 -336 206
-100 -37 117 -121 135 -149 111 -169 -46 -39 -155 -46 -252 -17 l-90 27 7 103
c13 198 -85 341 -268 390 -85 22 -89 26 -89 98 0 146 -162 267 -340 254 -65
-4 -86 3 -113 41 -63 91 -276 133 -394 80 -42 -19 -60 -16 -112 22 -90 64
-194 71 -290 21 l-79 -41 -181 89 c-223 110 -413 174 -801 272 -339 84 -323
68 -250 266 64 169 225 401 391 562 l149 145 285 -97 c157 -53 367 -115 465
-136z m-1065 -861 c325 -79 611 -174 783 -259 l142 -71 -6 -100 c-9 -165 117
-310 271 -310 54 0 69 -11 92 -66 48 -115 242 -238 325 -206 18 7 53 -15 90
-57 68 -78 214 -141 284 -124 37 9 57 -1 92 -49 107 -144 325 -187 467 -90 47
32 79 42 98 30 133 -88 388 -85 468 4 25 27 62 38 129 38 109 0 208 57 270
155 31 50 54 64 106 64 142 2 286 111 314 241 12 53 21 60 84 60 202 0 354
216 266 379 -22 43 -49 30 310 154 234 81 811 247 857 247 80 0 -39 -504 -171
-729 -915 -1552 -4484 -1553 -5391 -1 -152 259 -262 804 -155 763 19 -8 143
-40 275 -73z m1320 -319 c27 -22 55 -68 62 -102 l13 -62 51 61 c114 135 332
117 380 -32 28 -87 43 -98 84 -62 174 153 388 -58 294 -290 -13 -34 -5 -36
104 -23 192 21 329 -133 261 -294 -92 -217 -370 -199 -438 27 -24 80 -55 95
-96 46 -73 -88 -279 8 -280 132 0 72 -16 81 -85 45 -138 -71 -295 38 -295 205
0 100 0 99 -83 56 -120 -62 -257 22 -257 156 0 152 165 231 285 137z"/>
</g>
</svg>
